<svg xmlns="http://www.w3.org/2000/svg" viewBox="0 0 640 360" role="img" aria-label="Cachorro com produtos pet">
  <defs>
    <linearGradient id="bg" x1="0" x2="1" y1="0" y2="1">
      <stop offset="0" stop-color="#ff8a00"/>
      <stop offset="1" stop-color="#23313f"/>
    </linearGradient>
    <radialGradient id="glow" cx=".68" cy=".22" r=".72">
      <stop offset="0" stop-color="#fff4db" stop-opacity=".75"/>
      <stop offset=".65" stop-color="#fff4db" stop-opacity="0"/>
    </radialGradient>
  </defs>
  <rect width="640" height="360" rx="28" fill="url(#bg)"/>
  <rect width="640" height="360" fill="url(#glow)"/>
  <circle cx="520" cy="292" r="120" fill="#fff" opacity=".1"/>
  <circle cx="128" cy="72" r="70" fill="#111820" opacity=".16"/>
  <path d="M86 285c25-48 74-78 137-78 72 0 123 39 145 87 9 20-6 42-28 42H114c-24 0-39-29-28-51Z" fill="#f4c38f"/>
  <path d="M181 82c-35 8-63 39-70 78-4 25 3 49 19 68 19 22 47 35 80 35s62-13 81-36c16-19 23-43 19-67-7-41-35-71-70-78-19-4-39-4-59 0Z" fill="#d58a48"/>
  <path d="M121 151 86 92c-6-10 4-21 15-16l60 29Z" fill="#9a5b30"/>
  <path d="m270 105 59-29c11-5 21 6 15 16l-35 59Z" fill="#9a5b30"/>
  <ellipse cx="175" cy="169" rx="14" ry="18" fill="#111820"/>
  <ellipse cx="247" cy="169" rx="14" ry="18" fill="#111820"/>
  <path d="M206 191c6-6 15-6 21 0 6 5 4 16-10 17-14-1-17-12-11-17Z" fill="#111820"/>
  <path d="M183 222c18 20 48 20 67 0" fill="none" stroke="#714322" stroke-width="10" stroke-linecap="round"/>
  <rect x="396" y="118" width="104" height="154" rx="18" fill="#ffffff" opacity=".94"/>
  <rect x="415" y="138" width="66" height="76" rx="10" fill="#ff8a00"/>
  <path d="M423 248h51" stroke="#23313f" stroke-width="12" stroke-linecap="round"/>
  <path d="M426 224h45" stroke="#9ab6b4" stroke-width="10" stroke-linecap="round"/>
  <circle cx="552" cy="210" r="44" fill="#ffffff" opacity=".95"/>
  <path d="M523 208c26-20 55-20 83 0-28 22-57 22-83 0Z" fill="#14a38b"/>
  <circle cx="540" cy="204" r="5" fill="#111820"/>
</svg>
